<svg width="125" height="25" viewBox="0 0 125 25" fill="none" xmlns="http://www.w3.org/2000/svg">
<path d="M4.29048 0.0909085V19H0.865057V0.0909085H4.29048ZM11.1944 10.6903V19H7.8521V4.81818H11.0467V7.22798H11.2129C11.5391 6.43395 12.0592 5.80303 12.7733 5.33523C13.4934 4.86742 14.3829 4.63352 15.4416 4.63352C16.4203 4.63352 17.2728 4.8428 17.9991 5.26136C18.7316 5.67992 19.2979 6.28622 19.698 7.08026C20.1042 7.87429 20.3043 8.83759 20.2981 9.97017V19H16.9558V10.4872C16.9558 9.5393 16.7096 8.79758 16.2172 8.26207C15.7309 7.72656 15.0569 7.45881 14.1951 7.45881C13.6104 7.45881 13.0903 7.58807 12.6348 7.84659C12.1854 8.09896 11.8315 8.4652 11.573 8.94531C11.3206 9.42543 11.1944 10.0071 11.1944 10.6903ZM29.8819 19.277C28.4662 19.277 27.2505 18.9661 26.2349 18.3445C25.2254 17.7228 24.4468 16.8641 23.899 15.7685C23.3573 14.6667 23.0865 13.3987 23.0865 11.9645C23.0865 10.5241 23.3635 9.25308 23.9174 8.15128C24.4714 7.04332 25.2531 6.18158 26.2626 5.56605C27.2782 4.94437 28.4785 4.63352 29.8635 4.63352C31.0145 4.63352 32.0332 4.84588 32.9196 5.2706C33.8121 5.68916 34.523 6.28314 35.0524 7.05256C35.5817 7.81581 35.8833 8.70833 35.9572 9.73011H32.7626C32.6333 9.04687 32.3256 8.47751 31.8393 8.02202C31.3592 7.56037 30.716 7.32954 29.9096 7.32954C29.2264 7.32954 28.6262 7.5142 28.1092 7.88352C27.5922 8.24669 27.189 8.76989 26.8997 9.45312C26.6165 10.1364 26.475 10.955 26.475 11.9091C26.475 12.8755 26.6165 13.7064 26.8997 14.402C27.1828 15.0914 27.5798 15.6238 28.0907 15.9993C28.6078 16.3686 29.2141 16.5533 29.9096 16.5533C30.402 16.5533 30.8422 16.4609 31.2299 16.2763C31.6239 16.0855 31.9532 15.8116 32.2179 15.4545C32.4825 15.0975 32.6641 14.6636 32.7626 14.1527H35.9572C35.8772 15.156 35.5817 16.0455 35.0708 16.821C34.56 17.5904 33.8644 18.1937 32.9842 18.6307C32.104 19.0616 31.0699 19.277 29.8819 19.277ZM45.7834 4.81818V7.40341H37.6307V4.81818H45.7834ZM39.6435 1.42045H42.9858V14.7344C42.9858 15.1837 43.0535 15.5284 43.1889 15.7685C43.3305 16.0024 43.5152 16.1624 43.7429 16.2486C43.9706 16.3348 44.223 16.3778 44.5 16.3778C44.7093 16.3778 44.9001 16.3625 45.0724 16.3317C45.2509 16.3009 45.3864 16.2732 45.4787 16.2486L46.0419 18.8615C45.8634 18.9231 45.608 18.9908 45.2756 19.0646C44.9493 19.1385 44.5492 19.1816 44.0753 19.1939C43.2382 19.2185 42.4841 19.0923 41.8132 18.8153C41.1423 18.5322 40.6098 18.0952 40.2159 17.5043C39.8281 16.9134 39.6373 16.1747 39.6435 15.2884V1.42045ZM52.6596 19.2862C51.7609 19.2862 50.9515 19.1262 50.2314 18.8061C49.5173 18.4799 48.9511 17.9998 48.5325 17.3658C48.1201 16.7318 47.9139 15.95 47.9139 15.0206C47.9139 14.2204 48.0616 13.5587 48.3571 13.0355C48.6525 12.5123 49.0557 12.0938 49.5666 11.7798C50.0775 11.4659 50.653 11.2289 51.2931 11.0689C51.9395 10.9027 52.6073 10.7827 53.2967 10.7088C54.1277 10.6226 54.8017 10.5457 55.3187 10.478C55.8358 10.4041 56.2112 10.2933 56.4451 10.1456C56.6852 9.99171 56.8052 9.75473 56.8052 9.43466V9.37926C56.8052 8.68371 56.599 8.14512 56.1866 7.76349C55.7742 7.38187 55.1802 7.19105 54.4047 7.19105C53.586 7.19105 52.9366 7.36955 52.4565 7.72656C51.9825 8.08357 51.6625 8.50521 51.4963 8.99148L48.3755 8.54829C48.6217 7.68655 49.028 6.96638 49.5943 6.38778C50.1606 5.80303 50.853 5.366 51.6717 5.0767C52.4904 4.78125 53.3952 4.63352 54.3862 4.63352C55.0694 4.63352 55.7496 4.71354 56.4267 4.87358C57.1038 5.03362 57.7224 5.29829 58.2825 5.66761C58.8426 6.03078 59.292 6.52628 59.6305 7.15412C59.9752 7.78196 60.1476 8.56676 60.1476 9.50852V19H56.9345V17.0518H56.8237C56.6206 17.4458 56.3343 17.8151 55.965 18.1598C55.6019 18.4983 55.1433 18.7723 54.5893 18.9815C54.0415 19.1847 53.3983 19.2862 52.6596 19.2862ZM53.5275 16.8303C54.1984 16.8303 54.7801 16.6979 55.2725 16.4332C55.765 16.1624 56.1435 15.8054 56.4082 15.3622C56.679 14.919 56.8145 14.4358 56.8145 13.9126V12.2415C56.7098 12.3277 56.5313 12.4077 56.2789 12.4815C56.0327 12.5554 55.7557 12.62 55.448 12.6754C55.1402 12.7308 54.8355 12.7801 54.5339 12.8232C54.2323 12.8662 53.9707 12.9032 53.7491 12.9339C53.2505 13.0017 52.8043 13.1125 52.4103 13.2663C52.0164 13.4202 51.7056 13.6357 51.4778 13.9126C51.2501 14.1835 51.1362 14.5343 51.1362 14.9652C51.1362 15.5807 51.3609 16.0455 51.8102 16.3594C52.2595 16.6733 52.832 16.8303 53.5275 16.8303ZM69.676 24.6136C68.4757 24.6136 67.4447 24.4505 66.5829 24.1243C65.7212 23.8042 65.0287 23.3733 64.5055 22.8317C63.9823 22.29 63.6191 21.6899 63.416 21.0312L66.426 20.3018C66.5614 20.5788 66.7583 20.8527 67.0169 21.1236C67.2754 21.4006 67.6232 21.6283 68.0602 21.8068C68.5034 21.9915 69.0604 22.0838 69.7314 22.0838C70.6793 22.0838 71.4641 21.853 72.0858 21.3913C72.7074 20.9358 73.0183 20.1849 73.0183 19.1385V16.4517H72.8521C72.6797 16.7964 72.4274 17.1503 72.095 17.5135C71.7688 17.8767 71.3348 18.1813 70.7931 18.4276C70.2576 18.6738 69.5836 18.7969 68.7711 18.7969C67.6816 18.7969 66.6937 18.5414 65.8074 18.0305C64.9271 17.5135 64.2254 16.7441 63.7022 15.7223C63.1852 14.6944 62.9267 13.4079 62.9267 11.8629C62.9267 10.3056 63.1852 8.99148 63.7022 7.92045C64.2254 6.84328 64.9302 6.0277 65.8166 5.47372C66.7029 4.91359 67.6909 4.63352 68.7804 4.63352C69.6113 4.63352 70.2946 4.77509 70.8301 5.05824C71.3717 5.33523 71.8026 5.67069 72.1227 6.06463C72.4428 6.45241 72.6859 6.81865 72.8521 7.16335H73.0368V4.81818H76.3329V19.2308C76.3329 20.4434 76.0436 21.4467 75.465 22.2408C74.8864 23.0348 74.0955 23.6288 73.0922 24.0227C72.0888 24.4167 70.9501 24.6136 69.676 24.6136ZM69.7037 16.1747C70.4115 16.1747 71.0147 16.0024 71.5133 15.6577C72.0119 15.313 72.3904 14.8175 72.649 14.1712C72.9075 13.5249 73.0368 12.7493 73.0368 11.8445C73.0368 10.9519 72.9075 10.1702 72.649 9.49929C72.3966 8.82836 72.0211 8.30824 71.5225 7.93892C71.0301 7.56345 70.4238 7.37571 69.7037 7.37571C68.9589 7.37571 68.3372 7.5696 67.8386 7.95739C67.34 8.34517 66.9645 8.8776 66.7122 9.55469C66.4598 10.2256 66.3336 10.9889 66.3336 11.8445C66.3336 12.7124 66.4598 13.4725 66.7122 14.125C66.9707 14.7713 67.3493 15.276 67.8478 15.6392C68.3526 15.9962 68.9712 16.1747 69.7037 16.1747ZM79.7583 19V4.81818H82.9991V7.18182H83.1468C83.4054 6.36316 83.8485 5.73224 84.4764 5.28906C85.1104 4.83973 85.8336 4.61506 86.6461 4.61506C86.8308 4.61506 87.037 4.62429 87.2647 4.64275C87.4986 4.65507 87.6925 4.67661 87.8464 4.70739V7.78196C87.7048 7.73272 87.4802 7.68963 87.1724 7.6527C86.8708 7.60961 86.5784 7.58807 86.2953 7.58807C85.6859 7.58807 85.1381 7.72041 84.6518 7.98508C84.1717 8.24361 83.7931 8.60369 83.5162 9.06534C83.2392 9.52699 83.1007 10.0594 83.1007 10.6626V19H79.7583ZM93.894 19.2862C92.9953 19.2862 92.1859 19.1262 91.4657 18.8061C90.7517 18.4799 90.1854 17.9998 89.7669 17.3658C89.3545 16.7318 89.1483 15.95 89.1483 15.0206C89.1483 14.2204 89.296 13.5587 89.5914 13.0355C89.8869 12.5123 90.2901 12.0938 90.801 11.7798C91.3118 11.4659 91.8874 11.2289 92.5275 11.0689C93.1738 10.9027 93.8417 10.7827 94.5311 10.7088C95.362 10.6226 96.036 10.5457 96.5531 10.478C97.0701 10.4041 97.4456 10.2933 97.6795 10.1456C97.9196 9.99171 98.0396 9.75473 98.0396 9.43466V9.37926C98.0396 8.68371 97.8334 8.14512 97.421 7.76349C97.0086 7.38187 96.4146 7.19105 95.639 7.19105C94.8204 7.19105 94.171 7.36955 93.6909 7.72656C93.2169 8.08357 92.8968 8.50521 92.7306 8.99148L89.6099 8.54829C89.8561 7.68655 90.2624 6.96638 90.8287 6.38778C91.3949 5.80303 92.0874 5.366 92.9061 5.0767C93.7247 4.78125 94.6296 4.63352 95.6206 4.63352C96.3038 4.63352 96.984 4.71354 97.661 4.87358C98.3381 5.03362 98.9567 5.29829 99.5169 5.66761C100.077 6.03078 100.526 6.52628 100.865 7.15412C101.21 7.78196 101.382 8.56676 101.382 9.50852V19H98.1689V17.0518H98.0581C97.8549 17.4458 97.5687 17.8151 97.1994 18.1598C96.8362 18.4983 96.3777 18.7723 95.8237 18.9815C95.2759 19.1847 94.6326 19.2862 93.894 19.2862ZM94.7619 16.8303C95.4328 16.8303 96.0145 16.6979 96.5069 16.4332C96.9993 16.1624 97.3779 15.8054 97.6426 15.3622C97.9134 14.919 98.0488 14.4358 98.0488 13.9126V12.2415C97.9442 12.3277 97.7657 12.4077 97.5133 12.4815C97.2671 12.5554 96.9901 12.62 96.6824 12.6754C96.3746 12.7308 96.0699 12.7801 95.7683 12.8232C95.4667 12.8662 95.2051 12.9032 94.9835 12.9339C94.4849 13.0017 94.0386 13.1125 93.6447 13.2663C93.2508 13.4202 92.9399 13.6357 92.7122 13.9126C92.4844 14.1835 92.3706 14.5343 92.3706 14.9652C92.3706 15.5807 92.5952 16.0455 93.0446 16.3594C93.4939 16.6733 94.0663 16.8303 94.7619 16.8303ZM104.743 19V4.81818H107.937V7.22798H108.104C108.399 6.41548 108.888 5.78149 109.572 5.32599C110.255 4.86435 111.07 4.63352 112.018 4.63352C112.979 4.63352 113.788 4.86742 114.447 5.33523C115.111 5.79687 115.579 6.42779 115.85 7.22798H115.998C116.312 6.4401 116.841 5.81226 117.586 5.34446C118.337 4.8705 119.226 4.63352 120.254 4.63352C121.559 4.63352 122.624 5.04593 123.449 5.87074C124.273 6.69555 124.686 7.89891 124.686 9.48082V19H121.334V9.99787C121.334 9.11766 121.1 8.47443 120.633 8.06818C120.165 7.65578 119.592 7.44957 118.915 7.44957C118.109 7.44957 117.478 7.70194 117.023 8.20668C116.573 8.70526 116.349 9.35464 116.349 10.1548V19H113.071V9.85938C113.071 9.12689 112.849 8.54214 112.406 8.10511C111.969 7.66809 111.397 7.44957 110.689 7.44957C110.209 7.44957 109.772 7.57268 109.378 7.81889C108.984 8.05895 108.67 8.40057 108.436 8.84375C108.202 9.28078 108.085 9.79167 108.085 10.3764V19H104.743Z" fill="white"/>
</svg>
